# This file uses centimeters as units for non-parametric coordinates.

mtllib misc.mtl
g default
v -98.377151 84.125351 -39.748939
v -33.237713 84.125351 -39.748939
v -33.237713 50.076967 -28.964113
v -98.377151 50.076967 -28.964113
v -98.377151 79.365686 -54.775507
v -33.237713 79.365686 -54.775507
v -33.237713 43.867276 -43.531365
v -98.377151 43.867276 -43.531365
v -98.377151 89.396249 -46.389282
v -98.377151 87.498446 -52.380769
v -33.237713 87.498446 -52.380769
v -33.237713 89.396249 -46.389282
v -33.237713 42.467105 -38.116615
v -33.237713 43.877012 -31.991921
v -98.377151 42.467119 -38.116852
v -98.377151 43.877125 -31.991712
v -33.237713 82.693541 -44.269271
v -33.237713 80.796656 -50.257906
v -33.237713 48.202997 -33.360195
v -33.237713 45.734299 -39.151534
v -98.377151 48.203098 -33.360005
v -98.377151 45.734233 -39.151728
v -98.377151 82.693547 -44.269236
v -98.377151 80.796627 -50.257931
vt 0.456250 0.250000
vt 0.375000 0.250000
vt 0.456250 0.461956
vt 0.456250 0.250000
vt 0.375000 0.461956
vt 0.456250 0.461956
vt 0.375000 0.250000
vt 0.375000 0.461956
vt 0.456250 0.250000
vt 0.375000 0.250000
vt 0.456250 0.461956
vt 0.456250 0.250000
vt 0.375000 0.461956
vt 0.456250 0.461956
vt 0.375000 0.250000
vt 0.375000 0.461956
vt 0.456250 0.281211
vt 0.456250 0.281544
vt 0.456250 0.441812
vt 0.456250 0.446578
vt 0.375000 0.441812
vt 0.375000 0.446578
vt 0.375000 0.281211
vt 0.375000 0.281545
vn 0.000000 -0.301964 -0.953319
vn 0.000000 -0.301964 -0.953319
vn 0.000000 -0.301964 -0.953319
vn 0.000000 -0.301964 -0.953319
vn 0.000000 0.301964 0.953319
vn 0.000000 0.301964 0.953319
vn 0.000000 0.301964 0.953319
vn 0.000000 0.301964 0.953319
vn -1.000000 -0.000000 -0.000001
vn -1.000000 -0.000000 -0.000001
vn -1.000000 -0.000000 -0.000000
vn -1.000000 0.000000 -0.000000
vn 0.000000 0.953319 -0.301964
vn 0.000000 0.953319 -0.301964
vn 0.000000 0.953319 -0.301964
vn 0.000000 0.953319 -0.301964
vn 1.000000 -0.000000 -0.000000
vn 1.000000 0.000000 0.000000
vn 1.000000 0.000000 0.000000
vn 1.000000 -0.000000 -0.000000
vn -0.000000 -1.000000 0.000849
vn 0.000000 -0.768937 0.639324
vn 0.000000 -0.768936 0.639326
vn -0.000000 -1.000000 0.000848
vn 0.000000 0.282465 -0.959278
vn 0.000000 0.282465 -0.959278
vn 0.000000 0.282465 -0.959278
vn 0.000000 0.282465 -0.959278
vn 1.000000 0.000000 0.000000
vn 0.000000 -0.968154 -0.250354
vn 0.000000 -0.968154 -0.250354
vn -1.000000 0.000000 0.000002
vn 0.000000 0.783244 0.621715
vn 0.000000 0.783244 0.621715
vn 0.000000 0.783244 0.621715
vn 0.000000 0.783244 0.621715
vn 1.000000 0.000000 0.000001
vn 0.000001 -0.438817 0.898576
vn 0.000001 -0.438817 0.898576
vn -1.000000 0.000000 0.000001
vn 1.000000 0.000000 0.000000
vn 1.000000 -0.000000 -0.000000
vn 1.000000 0.000000 0.000000
vn 1.000000 0.000000 0.000000
vn 1.000000 0.000000 0.000000
vn 1.000000 0.000000 0.000000
vn -1.000000 0.000000 0.000001
vn -1.000000 -0.000000 -0.000001
vn -1.000000 -0.000000 -0.000001
vn -1.000000 0.000001 0.000002
vn -1.000000 -0.000000 -0.000002
vn -1.000000 -0.000000 -0.000001
s off
g L_Bottom_Cushion1
usemtl initialShadingGroup
f 5/2/1 6/4/2 7/6/3 8/8/4
f 1/15/5 4/13/6 3/11/7 2/9/8
s 1
f 21/21/9 22/22/10 15/5/11 16/16/12
s off
f 10/7/13 9/10/14 12/12/15 11/1/16
s 2
f 11/1/17 12/12/18 17/17/19 18/18/20
s 3
f 13/3/21 14/14/22 16/16/23 15/5/24
s off
f 10/7/25 11/1/26 6/4/27 5/2/28
s 2
f 11/1/17 18/18/20 6/4/29
s 3
f 13/3/21 15/5/24 8/8/30 7/6/31
s 1
f 15/5/11 22/22/10 8/8/32
s off
f 1/15/33 2/9/34 12/12/35 9/10/36
s 2
f 2/9/37 17/17/19 12/12/18
s 3
f 3/11/38 4/13/39 16/16/23 14/14/22
s 1
f 4/13/40 21/21/9 16/16/12
s 2
f 2/9/37 3/11/41 19/19/42 17/17/19
f 18/18/20 17/17/19 19/19/42 20/20/43
f 6/4/29 18/18/20 20/20/43 7/6/44
f 19/19/42 3/11/41 14/14/45
f 20/20/43 19/19/42 14/14/45 13/3/46
f 7/6/44 20/20/43 13/3/46
s 1
f 4/13/40 1/15/47 23/23/48 21/21/9
f 23/23/48 24/24/49 22/22/10 21/21/9
f 8/8/32 22/22/10 24/24/49 5/2/50
f 23/23/48 1/15/47 9/10/51
f 9/10/51 10/7/52 24/24/49 23/23/48
f 5/2/50 24/24/49 10/7/52
g default
v -96.205833 27.552574 27.570225
v -35.409027 27.552574 27.570225
v -35.409027 27.552566 -44.622955
v -96.205833 27.552566 -44.622955
v -96.205833 41.132082 27.570221
v -35.409027 41.132082 27.570221
v -35.409027 41.132077 -44.622974
v -96.205833 41.132077 -44.622974
v -91.863205 27.552574 29.553038
v -91.863205 27.552566 -44.622955
v -91.863205 42.625599 -44.622971
v -91.863205 42.625605 29.553034
v -98.377151 38.586219 27.570221
v -91.863205 38.586218 29.553036
v -33.237713 38.586219 27.570221
v -33.237713 38.586212 -44.622971
v -91.863205 38.586212 -44.622967
v -98.377151 38.586212 -44.622971
v -98.377151 29.759303 27.570225
v -91.863205 29.759302 29.553038
v -33.237713 29.759303 27.570225
v -33.237713 29.759296 -44.622959
v -91.863205 29.759296 -44.622959
v -98.377151 29.759296 -44.622959
v -39.100262 27.552574 29.553040
v -39.100262 29.759302 29.553040
v -39.100262 38.586219 29.553036
v -39.100262 42.625605 29.553036
v -39.100262 42.625599 -44.622974
v -39.100262 38.586212 -44.622967
v -39.100262 29.759296 -44.622959
v -39.100262 27.552566 -44.622955
v -81.310616 27.552574 29.553040
v -81.310616 27.552566 -44.622955
v -81.310616 29.759296 -44.622959
v -81.310616 38.586212 -44.622967
v -81.310616 43.314917 -44.622971
v -81.310616 43.314925 29.553036
v -81.310616 38.586218 29.553038
v -81.310616 29.759302 29.553040
v -49.652851 38.586212 -44.622971
v -49.652851 29.759296 -44.622963
v -49.652847 27.552566 -44.622955
v -49.652847 27.552574 29.553040
v -49.652847 29.759302 29.553040
v -49.652847 38.586219 29.553036
v -49.652847 43.314923 29.553036
v -49.652847 43.314917 -44.622974
vt 0.375000 0.250000
vt 0.456250 0.250000
vt 0.456250 0.461956
vt 0.375000 0.461956
vt 0.375000 0.250000
vt 0.456250 0.250000
vt 0.456250 0.461956
vt 0.375000 0.461956
vt 0.375000 0.250000
vt 0.456250 0.250000
vt 0.456250 0.461956
vt 0.375000 0.461956
vt 0.383125 0.250000
vt 0.383125 0.250000
vt 0.383125 0.461956
vt 0.383125 0.461956
vt 0.383125 0.461956
vt 0.383125 0.250000
vt 0.375000 0.250000
vt 0.383125 0.250000
vt 0.456250 0.250000
vt 0.456250 0.461956
vt 0.383125 0.461956
vt 0.375000 0.461956
vt 0.375000 0.250000
vt 0.383125 0.250000
vt 0.456250 0.250000
vt 0.456250 0.461956
vt 0.383125 0.461956
vt 0.375000 0.461956
vt 0.448938 0.250000
vt 0.448938 0.250000
vt 0.448938 0.250000
vt 0.448938 0.250000
vt 0.448938 0.250000
vt 0.448938 0.461956
vt 0.448938 0.461956
vt 0.448938 0.461956
vt 0.448938 0.461956
vt 0.448938 0.461956
vt 0.396288 0.250000
vt 0.396288 0.250000
vt 0.396288 0.461956
vt 0.396288 0.461956
vt 0.396288 0.461956
vt 0.396288 0.461956
vt 0.396288 0.461956
vt 0.396288 0.250000
vt 0.396288 0.250000
vt 0.396288 0.250000
vt 0.435775 0.461956
vt 0.435775 0.461956
vt 0.435775 0.461956
vt 0.435775 0.461956
vt 0.435775 0.250000
vt 0.435775 0.250000
vt 0.435775 0.250000
vt 0.435775 0.250000
vt 0.435775 0.250000
vt 0.435775 0.461956
vn 0.016328 0.999867 -0.000000
vn 0.016328 0.999867 -0.000000
vn -0.016328 0.999867 -0.000000
vn -0.016328 0.999867 -0.000000
vn 0.000000 -1.000000 0.000000
vn 0.000000 -1.000000 0.000000
vn 0.000000 -1.000000 0.000000
vn 0.000000 -1.000000 0.000000
vn 0.000000 0.000000 1.000000
vn 0.000000 0.000000 1.000000
vn -0.000000 0.000000 1.000000
vn -0.000000 0.000000 1.000000
vn 0.982258 0.187534 -0.000000
vn 0.982258 0.187535 -0.000000
vn 0.760858 0.648919 -0.000000
vn 0.760858 0.648919 -0.000000
vn -0.000000 -0.000001 -1.000000
vn -0.000000 -0.000001 -1.000000
vn -0.000000 -0.000001 -1.000000
vn 0.000000 -0.000001 -1.000000
vn -0.982258 0.187535 -0.000000
vn -0.982258 0.187535 -0.000000
vn -0.760856 0.648921 -0.000000
vn -0.760856 0.648921 -0.000000
vn -0.000000 -1.000000 0.000000
vn -0.000000 -1.000000 0.000000
vn -0.000000 -1.000000 0.000000
vn -0.000000 -1.000000 0.000000
vn 0.000000 -0.000001 -1.000000
vn 0.000000 -0.000001 -1.000000
vn 0.000000 -0.000001 -1.000000
vn 0.000000 -0.000001 -1.000000
vn -0.325225 0.945637 -0.000000
vn -0.128646 0.991691 -0.000000
vn -0.144250 0.989541 -0.000000
vn -0.325225 0.945637 -0.000000
vn -0.301073 0.017498 0.953441
vn -0.111602 0.009998 0.993703
vn -0.084700 0.027928 0.996015
vn -0.354908 0.117023 0.927548
vn -0.296462 -0.017114 0.954891
vn -0.116865 -0.011499 0.993081
vn 0.000000 0.000000 1.000000
vn -0.000000 0.000000 1.000000
vn 0.981182 -0.193087 0.000000
vn 0.981182 -0.193087 0.000000
vn -0.000000 -0.000001 -1.000000
vn -0.000000 -0.000001 -1.000000
vn 0.000000 -0.000001 -1.000000
vn 0.000000 -0.000001 -1.000000
vn -0.981182 -0.193088 0.000000
vn -0.981182 -0.193088 0.000000
vn -0.338316 -0.166444 0.926196
vn -0.122905 -0.060466 0.990575
vn 0.000000 0.000000 1.000000
vn 0.000000 0.000000 1.000000
vn 0.712804 -0.701364 0.000000
vn 0.712804 -0.701364 0.000000
vn 0.000000 -0.000003 -1.000000
vn -0.000000 -0.000002 -1.000000
vn 0.000000 -0.000002 -1.000000
vn 0.000000 -0.000002 -1.000000
vn -0.712802 -0.701365 0.000000
vn -0.712802 -0.701365 0.000000
vn 0.326754 -0.019039 0.944918
vn 0.121496 -0.011954 0.992520
vn 0.128023 -0.062985 0.989769
vn 0.376728 -0.185342 0.907593
vn 0.332328 0.019451 0.942963
vn 0.115821 0.010375 0.993216
vn 0.084963 0.028015 0.995990
vn 0.397471 0.131056 0.908208
vn 0.150636 0.988589 -0.000000
vn 0.130656 0.991428 -0.000000
vn 0.375074 0.926995 -0.000000
vn 0.375074 0.926995 -0.000000
vn -0.000000 -0.000001 -1.000000
vn 0.000000 -0.000001 -1.000000
vn -0.000000 -0.000001 -1.000000
vn -0.000001 -0.000002 -1.000000
vn 0.000000 -0.000001 -1.000000
vn 0.000000 -0.000001 -1.000000
vn 0.000000 -0.000002 -1.000000
vn 0.000000 -0.000002 -1.000000
vn 0.000000 -1.000000 0.000000
vn 0.000000 -1.000000 0.000000
vn 0.000000 -1.000000 0.000000
vn 0.000000 -1.000000 0.000000
s 1
g L_Bottom_Cushion
usemtl initialShadingGroup
f 71/83/53 72/84/54 61/71/55 62/72/56
s 2
f 67/77/57 68/80/58 57/66/59 58/67/60
s 3
f 70/82/61 71/83/62 62/72/63 63/73/64
s 4
f 39/45/65 40/46/66 31/35/67 30/34/68
s 5
f 72/84/69 65/75/70 60/70/71 61/71/72
s 6
f 42/48/73 37/43/74 29/33/75 32/36/76
s 2
f 25/29/77 28/32/78 34/39/79 33/38/80
s 5
f 35/41/81 41/47/82 42/48/83 32/36/84
s 1
f 29/33/85 36/42/86 35/41/87 32/36/88
s 3
f 37/43/89 38/44/90 36/42/91 29/33/92
f 43/49/93 44/50/94 38/44/90 37/43/89
f 69/81/95 70/82/61 63/73/64 64/74/96
s 4
f 45/51/97 46/52/98 40/46/66 39/45/65
s 5
f 60/70/71 65/75/70 66/76/99 59/69/100
f 42/48/83 41/47/82 47/53/101 48/54/102
s 6
f 48/54/103 43/49/104 37/43/74 42/48/73
s 3
f 25/25/105 33/37/106 44/50/94 43/49/93
f 68/79/107 69/81/95 64/74/96 57/65/108
s 4
f 26/26/109 27/27/110 46/52/98 45/51/97
s 5
f 59/69/100 66/76/99 67/78/111 58/68/112
f 48/54/102 47/53/101 34/40/113 28/28/114
s 6
f 28/28/115 25/25/116 43/49/104 48/54/103
s 3
f 45/51/117 50/57/118 49/55/119 26/26/120
f 39/45/121 51/58/122 50/57/118 45/51/117
f 52/59/123 51/58/122 39/45/121 30/34/124
s 1
f 53/60/125 52/59/126 30/34/127 31/35/128
s 5
f 40/46/129 54/61/130 53/60/131 31/35/132
f 46/52/133 55/62/134 54/61/130 40/46/129
f 27/27/135 56/64/136 55/62/134 46/52/133
s 2
f 49/56/137 56/63/138 27/31/139 26/30/140
f 33/38/80 34/39/79 58/67/60 57/66/59
s 5
f 59/69/100 58/68/112 34/40/113 47/53/101
f 60/70/71 59/69/100 47/53/101 41/47/82
f 61/71/72 60/70/71 41/47/82 35/41/81
s 1
f 35/41/87 36/42/86 62/72/56 61/71/55
s 3
f 36/42/91 38/44/90 63/73/64 62/72/63
f 64/74/96 63/73/64 38/44/90 44/50/94
f 57/65/108 64/74/96 44/50/94 33/37/106
s 5
f 54/61/130 55/62/134 66/76/99 65/75/70
f 55/62/134 56/64/136 67/78/111 66/76/99
s 2
f 68/80/58 67/77/57 56/63/138 49/56/137
s 3
f 49/55/119 50/57/118 69/81/95 68/79/107
f 50/57/118 51/58/122 70/82/61 69/81/95
f 71/83/62 70/82/61 51/58/122 52/59/123
s 1
f 72/84/54 71/83/53 52/59/126 53/60/125
s 5
f 53/60/131 54/61/130 65/75/70 72/84/69
